<svg width="20" height="20" viewBox="0 0 20 20" fill="none" xmlns="http://www.w3.org/2000/svg">
<path d="M18.6818 12.5345C18.1028 14.3758 16.8142 16.6578 14.2917 18.0104C12.7282 18.8488 11.0306 19.1834 9.38314 19.0711L9.42568 0.943031C9.47777 0.93874 9.53005 0.934842 9.58253 0.931351C10.0681 0.92781 10.6665 0.949441 11.28 1.01914C11.5536 1.05024 11.8247 1.09032 12.0863 1.14042C12.6587 1.27601 13.2174 1.46665 13.754 1.70979C15.5103 2.50564 17.0281 3.86336 18.0099 5.69447C18.8203 7.20572 19.1598 8.84206 19.0803 10.4371C19.0472 10.9747 18.9268 11.7157 18.6818 12.5345ZM8.42537 1.075L8.38343 18.9472C5.74393 18.4709 3.34092 16.8381 1.97576 14.2922C-0.398422 9.86443 1.2663 4.35039 5.694 1.9762C6.26708 1.66891 7.24635 1.28834 8.42537 1.075Z" stroke="url(#paint0_linear_0_497)"/>
<defs>
<linearGradient id="paint0_linear_0_497" x1="0.755987" y1="8.72362" x2="20.9646" y2="9.99233" gradientUnits="userSpaceOnUse">
<stop offset="0.288448" stop-color="#555248"/>
<stop offset="0.780176" stop-color="#1B1A17" stop-opacity="0"/>
</linearGradient>
</defs>
</svg>
